<svg xmlns="http://www.w3.org/2000/svg" role="img" aria-label="CartePro"
     viewBox="0 0 128 128" width="128" height="128">
  <!--
    Le C dans sa boîte blanche, pour les usages qui réclament un carré :
    trombinoscopes, vignettes de partage, icône d'application. Même tracé que
    app/icon.svg. Le logotype complet — le nom — est wordmark-purple.svg.
  -->
  <path fill="#ffffff" d="M26 0 H102 A26 26 0 0 1 128 26 V102 A26 26 0 0 1 102 128 H26 A26 26 0 0 1 0 102 V26 A26 26 0 0 1 26 0 Z"/>
  <path fill="#4a1b6b" transform="translate(24.63 101.20) scale(0.10845)"
        d="M378.0 12.0Q273.0 12.0 198.5 -25.0Q124.0 -62.0 84.5 -140.5Q45.0 -219.0 45.0 -343.0Q45.0 -524.0 133.0 -611.0Q221.0 -698.0 378.0 -698.0Q463.0 -698.0 531.5 -669.0Q600.0 -640.0 640.5 -581.5Q681.0 -523.0 681.0 -433.0H548.0Q548.0 -483.0 526.5 -517.5Q505.0 -552.0 467.0 -570.0Q429.0 -588.0 380.0 -588.0Q312.0 -588.0 267.0 -561.5Q222.0 -535.0 200.5 -483.0Q179.0 -431.0 179.0 -354.0V-332.0Q179.0 -254.0 200.5 -202.0Q222.0 -150.0 266.5 -124.0Q311.0 -98.0 380.0 -98.0Q432.0 -98.0 471.0 -115.5Q510.0 -133.0 531.5 -167.5Q553.0 -202.0 553.0 -252.0H681.0Q681.0 -162.0 641.0 -103.5Q601.0 -45.0 532.5 -16.5Q464.0 12.0 378.0 12.0Z"/>
</svg>
